<?xml version="1.0" encoding="UTF-8" standalone="no"?>
<svg
   xmlns:dc="http://purl.org/dc/elements/1.1/"
   xmlns:cc="http://creativecommons.org/ns#"
   xmlns:rdf="http://www.w3.org/1999/02/22-rdf-syntax-ns#"
   xmlns:svg="http://www.w3.org/2000/svg"
   xmlns="http://www.w3.org/2000/svg"
   id="svg5119"
   version="1.1"
   viewBox="0 0 12.7 12.7"
   height="48"
   width="48">
  <defs
     id="defs5113" />
  <metadata
     id="metadata5116">
    <rdf:RDF>
      <cc:Work
         rdf:about="">
        <dc:format>image/svg+xml</dc:format>
        <dc:type
           rdf:resource="http://purl.org/dc/dcmitype/StillImage" />
        <dc:title></dc:title>
      </cc:Work>
    </rdf:RDF>
  </metadata>
  <g
     transform="translate(0,-284.3)"
     id="layer1">
    <path
       d="m 10.900845,286.96276 v 7.37447 0 c 10e-7,1.08963 -2.0374817,1.97295 -4.5508448,1.97295 -2.5133632,0 -4.5508463,-0.88332 -4.5508452,-1.97295 v 0 -7.37447 0 c 1.16e-5,-1.08963 2.037491,-1.97294 4.5508452,-1.97294 2.513354,0 4.5508328,0.88331 4.5508448,1.97294 z"
       style="fill:none;fill-opacity:1;stroke:#2e178f;stroke-width:0.5;stroke-miterlimit:4;stroke-dasharray:none;stroke-opacity:1"
       id="path5716" />
    <path
       id="path5706"
       d="m 10.900845,286.96276 v 0 a 4.5508452,1.9729491 0 0 1 -4.5508448,1.97295 4.5508452,1.9729491 0 0 1 -4.5508452,-1.97295"
       style="fill:none;fill-opacity:1;stroke:#2e178f;stroke-width:0.5;stroke-miterlimit:4;stroke-dasharray:none;stroke-opacity:1" />
    <path
       id="path5718"
       d="m 10.900845,291.87907 v 0 a 4.5508452,1.9729491 0 0 1 -4.5508449,1.97295 4.5508452,1.9729491 0 0 1 -4.5508452,-1.97295"
       style="fill:none;fill-opacity:1;stroke:#2e178f;stroke-width:0.5;stroke-miterlimit:4;stroke-dasharray:none;stroke-opacity:1" />
    <path
       id="path5722"
       d="m 10.900845,289.42092 v 0 A 4.5508452,1.9729491 0 0 1 6.35,291.39387 4.5508452,1.9729491 0 0 1 1.7991548,289.42092"
       style="fill:none;fill-opacity:1;stroke:#2e178f;stroke-width:0.5;stroke-miterlimit:4;stroke-dasharray:none;stroke-opacity:1" />
  </g>
</svg>
