<?xml version="1.0" encoding="UTF-8" standalone="no"?>
<!-- Created with Inkscape (http://www.inkscape.org/) -->

<svg
   xmlns:dc="http://purl.org/dc/elements/1.1/"
   xmlns:cc="http://creativecommons.org/ns#"
   xmlns:rdf="http://www.w3.org/1999/02/22-rdf-syntax-ns#"
   xmlns:svg="http://www.w3.org/2000/svg"
   xmlns="http://www.w3.org/2000/svg"
   xmlns:sodipodi="http://sodipodi.sourceforge.net/DTD/sodipodi-0.dtd"
   xmlns:inkscape="http://www.inkscape.org/namespaces/inkscape"
   width="48"
   height="48"
   viewBox="0 0 12.7 12.7"
   version="1.1"
   id="svg5119"
   inkscape:version="0.92.0 r15299"
   sodipodi:docname="gogdb.svg">
  <defs
     id="defs5113" />
  <sodipodi:namedview
     id="base"
     pagecolor="#ffffff"
     bordercolor="#666666"
     borderopacity="1.0"
     inkscape:pageopacity="0.0"
     inkscape:pageshadow="2"
     inkscape:zoom="11.313709"
     inkscape:cx="22.899078"
     inkscape:cy="24.974456"
     inkscape:document-units="mm"
     inkscape:current-layer="layer1"
     showgrid="false"
     units="px"
     inkscape:snap-smooth-nodes="true"
     inkscape:snap-midpoints="false"
     inkscape:object-paths="false"
     inkscape:snap-bbox="true"
     inkscape:snap-global="true"
     inkscape:bbox-nodes="false"
     inkscape:snap-grids="false"
     inkscape:snap-object-midpoints="true"
     inkscape:bbox-paths="false"
     inkscape:window-width="1920"
     inkscape:window-height="1023"
     inkscape:window-x="0"
     inkscape:window-y="31"
     inkscape:window-maximized="1" />
  <metadata
     id="metadata5116">
    <rdf:RDF>
      <cc:Work
         rdf:about="">
        <dc:format>image/svg+xml</dc:format>
        <dc:type
           rdf:resource="http://purl.org/dc/dcmitype/StillImage" />
        <dc:title></dc:title>
      </cc:Work>
    </rdf:RDF>
  </metadata>
  <g
     inkscape:label="Ebene 1"
     inkscape:groupmode="layer"
     id="layer1"
     transform="translate(0,-284.3)">
    <g
       id="g5809"
       transform="translate(0,0.05001)">
      <path
         sodipodi:nodetypes="cccsccccscc"
         inkscape:connector-curvature="0"
         d="m 10.900845,286.91275 v 7.37447 0 c 10e-7,1.08963 -2.0374817,1.97295 -4.5508448,1.97295 -2.5133632,0 -4.5508463,-0.88332 -4.5508452,-1.97295 v 0 -7.37447 0 c 1.16e-5,-1.08963 2.037491,-1.97294 4.5508452,-1.97294 2.513354,0 4.5508328,0.88331 4.5508448,1.97294 z"
         style="fill:#ffffff;fill-opacity:1;stroke:#2e178f;stroke-width:0.5;stroke-miterlimit:4;stroke-dasharray:none;stroke-opacity:1"
         id="path5716" />
      <path
         inkscape:connector-curvature="0"
         id="path5706"
         d="m 10.900845,286.91275 v 0 A 4.5508452,1.9729491 0 0 1 6.3500002,288.8857 4.5508452,1.9729491 0 0 1 1.799155,286.91275"
         style="fill:none;fill-opacity:1;stroke:#2e178f;stroke-width:0.5;stroke-miterlimit:4;stroke-dasharray:none;stroke-opacity:1" />
      <path
         inkscape:connector-curvature="0"
         id="path5718"
         d="m 10.900845,291.82906 v 0 a 4.5508452,1.9729491 0 0 1 -4.5508449,1.97295 4.5508452,1.9729491 0 0 1 -4.5508452,-1.97295"
         style="fill:none;fill-opacity:1;stroke:#2e178f;stroke-width:0.5;stroke-miterlimit:4;stroke-dasharray:none;stroke-opacity:1" />
      <path
         inkscape:connector-curvature="0"
         id="path5722"
         d="m 10.900845,289.37091 v 0 A 4.5508452,1.9729491 0 0 1 6.35,291.34386 4.5508452,1.9729491 0 0 1 1.7991548,289.37091"
         style="fill:none;fill-opacity:1;stroke:#2e178f;stroke-width:0.5;stroke-miterlimit:4;stroke-dasharray:none;stroke-opacity:1" />
    </g>
  </g>
</svg>
