<svg xmlns="http://www.w3.org/2000/svg" width="48" height="48" viewBox="0 0 12.7 12.7">
  <g stroke="#2e178f" stroke-width=".5">
    <path d="M10.9008 2.6628v7.3744c0 1.0897-2.0374 1.973-4.5508 1.973s-4.5508-.8833-4.5508-1.973V2.6628c0-1.0897 2.0374-1.973 4.5508-1.973s4.5508.8833 4.5508 1.973z" fill="#fff"/>
    <path d="M10.9008 2.6628A4.5508 1.973 0 0 1 6.35 4.6358a4.5508 1.973 0 0 1-4.5508-1.973M10.9008 7.579A4.5508 1.973 0 0 1 6.35 9.552a4.5508 1.973 0 0 1-4.5508-1.973M10.9008 5.121A4.5508 1.973 0 0 1 6.35 7.0938a4.5508 1.973 0 0 1-4.5508-1.973" fill="none"/>
  </g>
</svg>
